Coordinates
version=1
nRows=21
nColumns=12
inDegrees=yes

Units are S.I. units (second, meters, Newtons, ...)
Angles are in degrees

endheader
time	SC_y	SC_z	SC_x	AC_y	AC_z	AC_x	GH_y	GH_z	GH_yy	EL_x	PS_y
       0.0              -56.89          5.029          31.18          41.09          9.479          3.383          160.0          88.72         -70.25          57.03          28.22
   0.03917              -56.89          5.033          31.18          41.09          9.478           3.38          160.0          88.71         -70.21          57.04          28.23
   0.07834              -56.88          5.038          31.18          41.09          9.478          3.378          160.0          88.69         -70.18          57.04          28.25
    0.1175              -56.87          5.042          31.18          41.09          9.477          3.375          160.0          88.68         -70.14          57.05          28.27
    0.1567              -56.87          5.047          31.18          41.09          9.476          3.372          160.0          88.66          -70.1          57.05           28.3
    0.1958              -56.86          5.052          31.18          41.09          9.475          3.369          160.0          88.65         -70.06          57.06          28.32
     0.235              -56.85          5.058          31.18           41.1          9.474          3.365          160.0          88.63         -70.01          57.06          28.34
    0.2742              -56.84          5.064          31.18           41.1          9.473          3.362          160.0          88.61         -69.96          57.07          28.37
    0.3134              -56.84           5.07          31.17           41.1          9.471          3.358          160.0          88.59         -69.91          57.08           28.4
    0.3525              -56.83          5.077          31.17           41.1           9.47          3.354          160.0          88.57         -69.86          57.08          28.43
    0.3917              -56.82          5.085          31.17           41.1          9.469          3.349          160.0          88.54          -69.8          57.09          28.46
    0.4309              -56.81          5.093          31.17          41.11          9.467          3.345          160.0          88.52         -69.73           57.1           28.5
      0.47              -56.79          5.101          31.17          41.11          9.466           3.34          160.0          88.49         -69.66          57.11          28.53
    0.5092              -56.78           5.11          31.16          41.11          9.464          3.334          160.0          88.46         -69.59          57.12          28.57
    0.5484              -56.77           5.12          31.16          41.12          9.462          3.328          160.0          88.43         -69.51          57.13          28.62
    0.5875              -56.75          5.131          31.16          41.12           9.46          3.321          160.0           88.4         -69.42          57.14          28.67
    0.6267              -56.74          5.143          31.16          41.12          9.458          3.314          160.0          88.36         -69.32          57.15          28.72
    0.6659              -56.72          5.156          31.15          41.13          9.455          3.307          160.0          88.32         -69.22          57.17          28.77
     0.705               -56.7           5.17          31.15          41.13          9.453          3.298          160.0          88.27          -69.1          57.18          28.84
    0.7442              -56.68          5.185          31.14          41.14           9.45          3.289          160.0          88.23         -68.98           57.2           28.9
    0.7834              -56.66          5.202          31.14          41.14          9.447          3.279          160.0          88.17         -68.84          57.21          28.98
